<svg width="24" height="25" viewBox="0 0 24 25" fill="none" xmlns="http://www.w3.org/2000/svg">
<path d="M11.24 11.0102C13.6185 11.0102 15.5467 9.08202 15.5467 6.70352C15.5467 4.32501 13.6185 2.39685 11.24 2.39685C8.86148 2.39685 6.93332 4.32501 6.93332 6.70352C6.93332 9.08202 8.86148 11.0102 11.24 11.0102Z" fill="#1E1E1E"/>
<path d="M14 18.8835H18.6667V19.8169H14V18.8835Z" fill="#1E1E1E"/>
<path d="M10 20.2169V22.2169C10 22.3937 10.0702 22.5632 10.1953 22.6883C10.3203 22.8133 10.4899 22.8835 10.6667 22.8835H22C22.1768 22.8835 22.3464 22.8133 22.4714 22.6883C22.5964 22.5632 22.6667 22.3937 22.6667 22.2169V15.5502C22.6667 15.3734 22.5964 15.2038 22.4714 15.0788C22.3464 14.9538 22.1768 14.8835 22 14.8835H17.3333V13.9035C17.3333 13.7267 17.2631 13.5571 17.1381 13.4321C17.013 13.3071 16.8435 13.2369 16.6667 13.2369C16.4899 13.2369 16.3203 13.3071 16.1953 13.4321C16.0702 13.5571 16 13.7267 16 13.9035V14.8835H14.6667V12.4969C13.5338 12.3115 12.3879 12.2179 11.24 12.2169C8.70853 12.2061 6.20543 12.7499 3.90666 13.8102C3.52832 13.9887 3.20913 14.2721 2.98698 14.6266C2.76483 14.9811 2.64903 15.3919 2.65333 15.8102V20.2169H10ZM21.3333 21.5502H11.3333V16.2169H16V16.4969C16 16.6737 16.0702 16.8432 16.1953 16.9683C16.3203 17.0933 16.4899 17.1635 16.6667 17.1635C16.8435 17.1635 17.013 17.0933 17.1381 16.9683C17.2631 16.8432 17.3333 16.6737 17.3333 16.4969V16.2169H21.3333V21.5502Z" fill="#1E1E1E"/>
</svg>
