<svg width="24" height="25" viewBox="0 0 24 25" fill="none" xmlns="http://www.w3.org/2000/svg">
<path d="M14 9.0723C13.7167 9.0723 13.4793 8.9763 13.288 8.7843C13.0967 8.5923 13.0007 8.35496 13 8.0723V4.0723C13 3.78896 13.096 3.55163 13.288 3.3603C13.48 3.16896 13.7173 3.07296 14 3.0723H20C20.2833 3.0723 20.521 3.1683 20.713 3.3603C20.905 3.5523 21.0007 3.78963 21 4.0723V8.0723C21 8.35563 20.904 8.5933 20.712 8.7853C20.52 8.9773 20.2827 9.07296 20 9.0723H14ZM4 13.0723C3.71667 13.0723 3.47933 12.9763 3.288 12.7843C3.09667 12.5923 3.00067 12.355 3 12.0723V4.0723C3 3.78896 3.096 3.55163 3.288 3.3603C3.48 3.16896 3.71733 3.07296 4 3.0723H10C10.2833 3.0723 10.521 3.1683 10.713 3.3603C10.905 3.5523 11.0007 3.78963 11 4.0723V12.0723C11 12.3556 10.904 12.5933 10.712 12.7853C10.52 12.9773 10.2827 13.073 10 13.0723H4ZM14 21.0723C13.7167 21.0723 13.4793 20.9763 13.288 20.7843C13.0967 20.5923 13.0007 20.355 13 20.0723V12.0723C13 11.789 13.096 11.5516 13.288 11.3603C13.48 11.169 13.7173 11.073 14 11.0723H20C20.2833 11.0723 20.521 11.1683 20.713 11.3603C20.905 11.5523 21.0007 11.7896 21 12.0723V20.0723C21 20.3556 20.904 20.5933 20.712 20.7853C20.52 20.9773 20.2827 21.073 20 21.0723H14ZM4 21.0723C3.71667 21.0723 3.47933 20.9763 3.288 20.7843C3.09667 20.5923 3.00067 20.355 3 20.0723V16.0723C3 15.789 3.096 15.5516 3.288 15.3603C3.48 15.169 3.71733 15.073 4 15.0723H10C10.2833 15.0723 10.521 15.1683 10.713 15.3603C10.905 15.5523 11.0007 15.7896 11 16.0723V20.0723C11 20.3556 10.904 20.5933 10.712 20.7853C10.52 20.9773 10.2827 21.073 10 21.0723H4Z" fill="#1E1E1E"/>
</svg>
