<svg width="74" height="77" viewBox="0 0 74 77" fill="none" xmlns="http://www.w3.org/2000/svg">
<g filter="url(#filter0_d_805_4396)">
<rect x="7.61633" y="2.85271" width="58" height="61.2946" rx="16.3452" fill="#6F55EF" fill-opacity="0.65"/>
</g>
<path d="M36.5 29.125C37.2735 29.125 38.0154 28.8177 38.5624 28.2707C39.1094 27.7237 39.4167 26.9819 39.4167 26.2083C39.4167 25.4348 39.1094 24.6929 38.5624 24.1459C38.0154 23.599 37.2735 23.2917 36.5 23.2917C35.7264 23.2917 34.9846 23.599 34.4376 24.1459C33.8906 24.6929 33.5833 25.4348 33.5833 26.2083C33.5833 26.9819 33.8906 27.7237 34.4376 28.2707C34.9846 28.8177 35.7264 29.125 36.5 29.125ZM28.1773 29.5771C27.9124 29.4743 27.6179 29.4786 27.3561 29.5891C27.0943 29.6996 26.8858 29.9077 26.7748 30.1692C26.6637 30.4308 26.6588 30.7253 26.761 30.9904C26.8633 31.2555 27.0647 31.4704 27.3227 31.5896L27.3256 31.591L27.3285 31.5925L27.3431 31.5983L27.3898 31.6188C27.6656 31.7338 27.9437 31.8432 28.2239 31.9469C28.7781 32.1583 29.5569 32.4398 30.4508 32.7198C31.8917 33.1748 33.7117 33.6531 35.4062 33.8106V35.619C35.4062 36.246 35.2254 36.8629 34.8856 37.3923L31.2048 43.1162C31.127 43.2371 31.0738 43.3721 31.0482 43.5135C31.0227 43.6549 31.0252 43.7999 31.0556 43.9404C31.0861 44.0808 31.1439 44.2138 31.2258 44.3319C31.3077 44.45 31.4121 44.5508 31.5329 44.6285C31.6537 44.7063 31.7887 44.7595 31.9301 44.7851C32.0715 44.8107 32.2166 44.8082 32.357 44.7777C32.4974 44.7472 32.6305 44.6894 32.7486 44.6075C32.8666 44.5256 32.9674 44.4213 33.0452 44.3004L36.5014 38.925L39.9548 44.3004C40.0325 44.4213 40.1333 44.5256 40.2514 44.6075C40.3695 44.6894 40.5025 44.7472 40.643 44.7777C40.7834 44.8082 40.9285 44.8107 41.0699 44.7851C41.2113 44.7595 41.3462 44.7063 41.4671 44.6285C41.5879 44.5508 41.6923 44.45 41.7741 44.3319C41.856 44.2138 41.9139 44.0808 41.9443 43.9404C41.9748 43.7999 41.9773 43.6549 41.9517 43.5135C41.9261 43.3721 41.8729 43.2371 41.7952 43.1162L38.1144 37.3923C37.7742 36.8629 37.5935 36.2468 37.5937 35.6175V33.8106C39.2883 33.6531 41.1083 33.1748 42.5506 32.7198C43.5847 32.3935 44.6054 32.0262 45.6102 31.6188L45.6583 31.5983L45.6729 31.5925L45.6758 31.591C45.9382 31.4748 46.1443 31.2601 46.2498 30.9932C46.3553 30.7263 46.3517 30.4287 46.2397 30.1645C46.1278 29.9003 45.9165 29.6906 45.6515 29.5807C45.3864 29.4708 45.0887 29.4695 44.8227 29.5771L44.8125 29.5815L44.7731 29.5975L44.6127 29.6631C44.4688 29.7224 44.2646 29.8022 44.0002 29.9023C43.4752 30.1021 42.7387 30.369 41.8944 30.6344C40.1764 31.174 38.1202 31.6771 36.5 31.6771C34.8798 31.6771 32.825 31.174 31.1071 30.6344C30.1344 30.3262 29.1741 29.9803 28.2283 29.5975L28.1875 29.5815L28.1773 29.5771Z" fill="black"/>
<defs>
<filter id="filter0_d_805_4396" x="0.124772" y="0.128503" width="72.9831" height="76.2777" filterUnits="userSpaceOnUse" color-interpolation-filters="sRGB">
<feFlood flood-opacity="0" result="BackgroundImageFix"/>
<feColorMatrix in="SourceAlpha" type="matrix" values="0 0 0 0 0 0 0 0 0 0 0 0 0 0 0 0 0 0 127 0" result="hardAlpha"/>
<feOffset dy="4.76736"/>
<feGaussianBlur stdDeviation="3.74578"/>
<feColorMatrix type="matrix" values="0 0 0 0 0 0 0 0 0 0 0 0 0 0 0 0 0 0 0.02 0"/>
<feBlend mode="normal" in2="BackgroundImageFix" result="effect1_dropShadow_805_4396"/>
<feBlend mode="normal" in="SourceGraphic" in2="effect1_dropShadow_805_4396" result="shape"/>
</filter>
</defs>
</svg>
