<svg width="74" height="77" viewBox="0 0 74 77" fill="none" xmlns="http://www.w3.org/2000/svg">
<g filter="url(#filter0_d_839_1699)">
<rect x="8" y="2.85271" width="58" height="61.2946" rx="16.3452" fill="#6F55EF" fill-opacity="0.65"/>
</g>
<path d="M38.5417 36.6354C37.5646 37.8021 36.8792 39.2312 36.6167 40.7917H29.9375V39.6979C29.9375 37.5104 34.3125 36.4167 36.5 36.4167C37.0687 36.4167 37.7833 36.4896 38.5417 36.6354ZM46.7083 23.2917V33.6167C47.7583 33.7917 48.7354 34.1562 49.625 34.6667V23.2917C49.625 22.5181 49.3177 21.7763 48.7707 21.2293C48.2237 20.6823 47.4819 20.375 46.7083 20.375H26.2917C25.5187 20.375 24.775 20.6812 24.2354 21.2354C23.6812 21.775 23.375 22.5187 23.375 23.2917V43.7083C23.375 44.4812 23.6812 45.225 24.2354 45.7646C24.775 46.3187 25.5187 46.625 26.2917 46.625H37.6667C37.1562 45.7354 36.7917 44.7583 36.6167 43.7083H26.2917V23.2917H46.7083ZM36.5 33.8646C37.375 33.8646 38.2062 33.5 38.8187 32.9021C39.4167 32.2896 39.7812 31.4583 39.7812 30.5833C39.7812 29.7083 39.4167 28.8771 38.8187 28.2646C38.1996 27.6557 37.3684 27.3106 36.5 27.3021C35.625 27.3021 34.7937 27.6667 34.1812 28.2646C33.5833 28.8771 33.2187 29.7083 33.2187 30.5833C33.2187 31.4583 33.5833 32.2896 34.1812 32.9021C34.7937 33.5 35.625 33.8646 36.5 33.8646ZM43.7917 36.4167H46.7083V40.7917H51.0833V43.7083H46.7083V48.0833H43.7917V43.7083H39.4167V40.7917H43.7917V36.4167Z" fill="black"/>
<defs>
<filter id="filter0_d_839_1699" x="0.508439" y="0.128503" width="72.9831" height="76.2777" filterUnits="userSpaceOnUse" color-interpolation-filters="sRGB">
<feFlood flood-opacity="0" result="BackgroundImageFix"/>
<feColorMatrix in="SourceAlpha" type="matrix" values="0 0 0 0 0 0 0 0 0 0 0 0 0 0 0 0 0 0 127 0" result="hardAlpha"/>
<feOffset dy="4.76736"/>
<feGaussianBlur stdDeviation="3.74578"/>
<feColorMatrix type="matrix" values="0 0 0 0 0 0 0 0 0 0 0 0 0 0 0 0 0 0 0.02 0"/>
<feBlend mode="normal" in2="BackgroundImageFix" result="effect1_dropShadow_839_1699"/>
<feBlend mode="normal" in="SourceGraphic" in2="effect1_dropShadow_839_1699" result="shape"/>
</filter>
</defs>
</svg>
