<svg width="70" height="73" viewBox="0 0 70 73" fill="none" xmlns="http://www.w3.org/2000/svg">
<g filter="url(#filter0_d_805_4427)">
<rect x="6.32568" y="2" width="58" height="61.2946" rx="12" fill="#6F55EF" fill-opacity="0.65"/>
</g>
<path d="M48.625 42.7083V44.1667H22.375V42.7083L25.2917 39.7917V31.0417C25.2917 26.5208 28.2521 22.5396 32.5833 21.2563V20.8333C32.5833 20.0598 32.8906 19.3179 33.4376 18.7709C33.9846 18.224 34.7265 17.9167 35.5 17.9167C36.2736 17.9167 37.0154 18.224 37.5624 18.7709C38.1094 19.3179 38.4167 20.0598 38.4167 20.8333V21.2563C42.7479 22.5396 45.7083 26.5208 45.7083 31.0417V39.7917L48.625 42.7083ZM38.4167 45.625C38.4167 46.3986 38.1094 47.1404 37.5624 47.6874C37.0154 48.2344 36.2736 48.5417 35.5 48.5417C34.7265 48.5417 33.9846 48.2344 33.4376 47.6874C32.8906 47.1404 32.5833 46.3986 32.5833 45.625M46.8021 19.6521L44.7313 21.7229C45.9648 22.9411 46.9442 24.3922 47.6126 25.9918C48.281 27.5915 48.6251 29.308 48.625 31.0417H51.5417C51.5417 26.7688 49.85 22.6563 46.8021 19.6521ZM19.4583 31.0417H22.375C22.375 27.5417 23.775 24.1875 26.2688 21.7229L24.1979 19.6521C22.6928 21.1419 21.4987 22.9159 20.685 24.8712C19.8714 26.8264 19.4544 28.9239 19.4583 31.0417Z" fill="black"/>
<defs>
<filter id="filter0_d_805_4427" x="0.825683" y="-2.38419e-07" width="69" height="72.2946" filterUnits="userSpaceOnUse" color-interpolation-filters="sRGB">
<feFlood flood-opacity="0" result="BackgroundImageFix"/>
<feColorMatrix in="SourceAlpha" type="matrix" values="0 0 0 0 0 0 0 0 0 0 0 0 0 0 0 0 0 0 127 0" result="hardAlpha"/>
<feOffset dy="3.5"/>
<feGaussianBlur stdDeviation="2.75"/>
<feColorMatrix type="matrix" values="0 0 0 0 0 0 0 0 0 0 0 0 0 0 0 0 0 0 0.02 0"/>
<feBlend mode="normal" in2="BackgroundImageFix" result="effect1_dropShadow_805_4427"/>
<feBlend mode="normal" in="SourceGraphic" in2="effect1_dropShadow_805_4427" result="shape"/>
</filter>
</defs>
</svg>
