<svg width="27" height="25" viewBox="0 0 27 25" fill="none" xmlns="http://www.w3.org/2000/svg">
<path fill-rule="evenodd" clip-rule="evenodd" d="M21.7391 3.50601H4.34783C3.15218 3.50601 2.17392 4.40601 2.17392 5.50601V19.506C2.17392 20.606 3.15218 21.506 4.34783 21.506H21.7391C22.9348 21.506 23.9131 20.606 23.9131 19.506V5.50601C23.9131 4.40601 22.9348 3.50601 21.7391 3.50601ZM9.78262 17.506H6.52175C5.92392 17.506 5.43479 17.056 5.43479 16.506C5.43479 15.956 5.92392 15.506 6.52175 15.506H9.78262C10.3804 15.506 10.8696 15.956 10.8696 16.506C10.8696 17.056 10.3804 17.506 9.78262 17.506ZM9.78262 13.506H6.52175C5.92392 13.506 5.43479 13.056 5.43479 12.506C5.43479 11.956 5.92392 11.506 6.52175 11.506H9.78262C10.3804 11.506 10.8696 11.956 10.8696 12.506C10.8696 13.056 10.3804 13.506 9.78262 13.506ZM9.78262 9.50601H6.52175C5.92392 9.50601 5.43479 9.05601 5.43479 8.50601C5.43479 7.95601 5.92392 7.50601 6.52175 7.50601H9.78262C10.3804 7.50601 10.8696 7.95601 10.8696 8.50601C10.8696 9.05601 10.3804 9.50601 9.78262 9.50601ZM20.3261 11.626L16.8804 14.796C16.4565 15.186 15.7609 15.186 15.337 14.796L13.8044 13.376C13.3804 12.986 13.3804 12.356 13.8044 11.966C14.2283 11.576 14.9131 11.576 15.337 11.966L16.1087 12.676L18.7935 10.206C19.2174 9.81601 19.9022 9.81601 20.3261 10.206L20.337 10.216C20.75 10.606 20.75 11.246 20.3261 11.626Z" fill="black" fill-opacity="0.7"/>
</svg>
