<svg width="70" height="73" viewBox="0 0 70 73" fill="none" xmlns="http://www.w3.org/2000/svg">
<g filter="url(#filter0_d_805_4417)">
<rect x="6.32568" y="2" width="58" height="61.2946" rx="12" fill="#6F55EF" fill-opacity="0.65"/>
</g>
<path d="M23.9012 20.9388H47.0262C47.2963 20.9387 47.5662 20.9568 47.8341 20.9931C47.7433 20.3193 47.5243 19.6719 47.1903 19.09C46.8564 18.5081 46.4144 18.0037 45.891 17.6072C45.3676 17.2107 44.7736 16.9304 44.1449 16.783C43.5162 16.6357 42.8657 16.6244 42.2328 16.7499L23.2147 20.1812H23.193C21.9992 20.4225 20.9376 21.1363 20.225 22.1768C21.2986 21.3698 22.5837 20.937 23.9012 20.9388Z" fill="white"/>
<path d="M47.0265 22.7752H23.9015C22.6752 22.7766 21.4996 23.292 20.6326 24.2083C19.7655 25.1246 19.2778 26.367 19.2765 27.6629V42.326C19.2778 43.6219 19.7655 44.8643 20.6326 45.7806C21.4996 46.6969 22.6752 47.2123 23.9015 47.2137H47.0265C48.2527 47.2123 49.4283 46.6969 50.2953 45.7806C51.1624 44.8643 51.6501 43.6219 51.6514 42.326V27.6629C51.6501 26.367 51.1624 25.1246 50.2953 24.2083C49.4283 23.292 48.2527 22.7766 47.0265 22.7752ZM43.5938 37.4383C43.1365 37.4383 42.6894 37.295 42.3091 37.0264C41.9288 36.7579 41.6324 36.3762 41.4574 35.9297C41.2823 35.4831 41.2365 34.9917 41.3258 34.5177C41.415 34.0436 41.6352 33.6081 41.9587 33.2664C42.2821 32.9246 42.6941 32.6918 43.1427 32.5975C43.5913 32.5032 44.0562 32.5516 44.4788 32.7366C44.9013 32.9216 45.2625 33.2348 45.5166 33.6367C45.7707 34.0386 45.9063 34.5111 45.9063 34.9944C45.9063 35.6426 45.6627 36.2642 45.229 36.7225C44.7953 37.1808 44.2071 37.4383 43.5938 37.4383Z" fill="white"/>
<path d="M19.3124 32.8139V25.2151C19.3124 23.5601 20.1796 20.7856 23.1895 20.1845C25.7441 19.6782 28.2734 19.6782 28.2734 19.6782C28.2734 19.6782 29.9355 20.9001 28.5624 20.9001C27.1894 20.9001 27.2255 22.7712 28.5624 22.7712C29.8994 22.7712 28.5624 24.5659 28.5624 24.5659L23.1786 31.0192L19.3124 32.8139Z" fill="white"/>
<defs>
<filter id="filter0_d_805_4417" x="0.825683" y="-2.38419e-07" width="69" height="72.2946" filterUnits="userSpaceOnUse" color-interpolation-filters="sRGB">
<feFlood flood-opacity="0" result="BackgroundImageFix"/>
<feColorMatrix in="SourceAlpha" type="matrix" values="0 0 0 0 0 0 0 0 0 0 0 0 0 0 0 0 0 0 127 0" result="hardAlpha"/>
<feOffset dy="3.5"/>
<feGaussianBlur stdDeviation="2.75"/>
<feColorMatrix type="matrix" values="0 0 0 0 0 0 0 0 0 0 0 0 0 0 0 0 0 0 0.02 0"/>
<feBlend mode="normal" in2="BackgroundImageFix" result="effect1_dropShadow_805_4417"/>
<feBlend mode="normal" in="SourceGraphic" in2="effect1_dropShadow_805_4417" result="shape"/>
</filter>
</defs>
</svg>
