<svg width="24" height="24" viewBox="0 0 24 24" fill="none" xmlns="http://www.w3.org/2000/svg">
<path d="M17.767 17.154L16.497 18.431C16.4217 18.505 16.381 18.5927 16.375 18.694C16.369 18.7953 16.4093 18.8897 16.496 18.977C16.5827 19.0643 16.6737 19.1077 16.769 19.107C16.8643 19.1063 16.9553 19.063 17.042 18.977L18.684 17.335C18.846 17.173 18.927 16.9843 18.927 16.769C18.927 16.5537 18.8463 16.3653 18.685 16.204L17.042 14.561C16.968 14.487 16.8803 14.447 16.779 14.441C16.6777 14.4343 16.5833 14.4743 16.496 14.561C16.4087 14.6477 16.3653 14.7387 16.366 14.834C16.366 14.9293 16.4093 15.0207 16.496 15.108L17.792 16.384H14.654C14.546 16.384 14.455 16.4213 14.381 16.496C14.307 16.5707 14.2697 16.6617 14.269 16.769C14.2683 16.8763 14.3057 16.9673 14.381 17.042C14.4563 17.1167 14.5473 17.154 14.654 17.154H17.767ZM16.77 21C15.6047 21 14.608 20.5863 13.78 19.759C12.9533 18.931 12.54 17.9343 12.54 16.769C12.54 15.6037 12.9533 14.607 13.78 13.779C14.608 12.9523 15.6047 12.539 16.77 12.539C17.9353 12.539 18.932 12.9523 19.76 13.779C20.5867 14.6077 21 15.6047 21 16.77C21 17.9353 20.5863 18.932 19.759 19.76C18.931 20.5867 17.9343 21 16.769 21M10.902 21C10.682 21 10.493 20.9227 10.335 20.768C10.177 20.6133 10.0773 20.424 10.036 20.2L9.77301 18.108C9.45367 18.0113 9.10834 17.86 8.73701 17.654C8.36634 17.4473 8.05067 17.226 7.79001 16.99L5.87501 17.814C5.66367 17.9073 5.44901 17.914 5.23101 17.834C5.01301 17.7553 4.84501 17.6203 4.72701 17.429L3.64801 15.57C3.53001 15.3793 3.49534 15.1697 3.54401 14.941C3.59267 14.7123 3.70867 14.5273 3.89201 14.386L5.56401 13.136C5.53401 12.9553 5.50967 12.772 5.49101 12.586C5.47101 12.4013 5.46101 12.212 5.46101 12.018C5.46101 11.824 5.47101 11.6313 5.49101 11.44C5.51101 11.2487 5.53534 11.0563 5.56401 10.863L3.89201 9.61299C3.70867 9.47033 3.59601 9.28499 3.55401 9.05699C3.51201 8.82899 3.54967 8.61299 3.66701 8.40899L4.72701 6.60899C4.84501 6.41766 5.01301 6.28233 5.23101 6.20299C5.44901 6.12366 5.66367 6.13066 5.87501 6.22399L7.77101 7.02799C8.06967 6.77933 8.38234 6.55833 8.70901 6.36499C9.03567 6.17166 9.38401 6.01366 9.75401 5.89099L10.037 3.79899C10.0777 3.57099 10.1843 3.38066 10.357 3.22799C10.5303 3.07533 10.7313 2.99899 10.96 2.99899H13.04C13.2687 2.99899 13.4693 3.07533 13.642 3.22799C13.8153 3.38066 13.9223 3.57099 13.963 3.79899L14.227 5.91099C14.5843 6.03233 14.923 6.18666 15.243 6.37399C15.563 6.56133 15.866 6.77933 16.152 7.02799L18.144 6.22399C18.356 6.13066 18.571 6.12366 18.789 6.20299C19.007 6.28233 19.1747 6.41766 19.292 6.60899L20.352 8.42799C20.47 8.61933 20.5047 8.82899 20.456 9.05699C20.4073 9.28499 20.2913 9.47033 20.108 9.61299L19.196 10.301C19.1013 10.3757 18.995 10.4233 18.877 10.444C18.759 10.4653 18.6443 10.4553 18.533 10.414C18.273 10.3287 18.0117 10.2657 17.749 10.225C17.4863 10.1843 17.2213 10.162 16.954 10.158C16.4607 10.1507 15.9773 10.1963 15.504 10.295C15.032 10.3937 14.575 10.5387 14.133 10.73C13.9063 10.35 13.5997 10.05 13.213 9.82999C12.8277 9.60933 12.4143 9.49899 11.973 9.49899C11.2757 9.49899 10.6847 9.74133 10.2 10.226C9.71534 10.7107 9.47301 11.302 9.47301 12C9.47301 12.4413 9.58001 12.8527 9.79401 13.234C10.0087 13.6153 10.3077 13.9193 10.691 14.146C10.523 14.6333 10.3947 15.129 10.306 15.633C10.2173 16.137 10.173 16.647 10.173 17.163C10.173 17.7477 10.2697 18.3117 10.463 18.855C10.6557 19.3977 10.9137 19.9157 11.237 20.409C11.319 20.5323 11.3233 20.6617 11.25 20.797C11.1767 20.9323 11.0607 21 10.902 21Z" fill="#1E1E1E"/>
</svg>
