<svg width="24" height="25" viewBox="0 0 24 25" fill="none" xmlns="http://www.w3.org/2000/svg">
<path d="M8 11.89V7.64002C8 7.22335 8.146 6.86935 8.438 6.57802C8.73 6.28668 9.084 6.14068 9.5 6.14002C9.916 6.13935 10.2703 6.28535 10.563 6.57802C10.8557 6.87068 11.0013 7.22468 11 7.64002V11.89C11 12.3067 10.8543 12.661 10.563 12.953C10.2717 13.245 9.91733 13.3907 9.5 13.39C9.08267 13.3893 8.72867 13.2437 8.438 12.953C8.14733 12.6623 8.00133 12.308 8 11.89ZM13 11.665V3.64002C13 3.22335 13.146 2.86935 13.438 2.57802C13.73 2.28668 14.084 2.14068 14.5 2.14002C14.916 2.13935 15.2703 2.28535 15.563 2.57802C15.8557 2.87068 16.0013 3.22468 16 3.64002V11.665C16 12.165 15.846 12.54 15.538 12.79C15.23 13.04 14.884 13.165 14.5 13.165C14.116 13.165 13.7703 13.04 13.463 12.79C13.1557 12.54 13.0013 12.165 13 11.665ZM3 15.115V11.64C3 11.2233 3.146 10.8693 3.438 10.578C3.73 10.2867 4.084 10.1407 4.5 10.14C4.916 10.1393 5.27033 10.2853 5.563 10.578C5.85567 10.8707 6.00133 11.2247 6 11.64V15.115C6 15.615 5.846 15.99 5.538 16.24C5.23 16.49 4.884 16.615 4.5 16.615C4.116 16.615 3.77033 16.49 3.463 16.24C3.15567 15.99 3.00133 15.615 3 15.115ZM5.4 21.19C4.96667 21.19 4.66233 20.986 4.487 20.578C4.31167 20.17 4.38267 19.8074 4.7 19.49L8.8 15.39C8.98333 15.2067 9.20433 15.1067 9.463 15.09C9.72167 15.0733 9.95067 15.1567 10.15 15.34L13 17.79L18.6 12.19H18C17.7167 12.19 17.4793 12.094 17.288 11.902C17.0967 11.71 17.0007 11.4727 17 11.19C16.9993 10.9074 17.0953 10.67 17.288 10.478C17.4807 10.286 17.718 10.19 18 10.19H21C21.2833 10.19 21.521 10.286 21.713 10.478C21.905 10.67 22.0007 10.9074 22 11.19V14.19C22 14.4734 21.904 14.711 21.712 14.903C21.52 15.095 21.2827 15.1907 21 15.19C20.7173 15.1894 20.48 15.0934 20.288 14.902C20.096 14.7107 20 14.4734 20 14.19V13.59L13.75 19.84C13.5667 20.0233 13.3457 20.1234 13.087 20.14C12.8283 20.1567 12.5993 20.0733 12.4 19.89L9.55 17.44L6.1 20.89C6.01667 20.9734 5.91267 21.0443 5.788 21.103C5.66333 21.1617 5.534 21.1907 5.4 21.19Z" fill="#1E1E1E"/>
</svg>
