<svg width="18" height="21" viewBox="0 0 18 21" fill="none" xmlns="http://www.w3.org/2000/svg">
<path d="M7.95 16.7115L4.4 13.1615L5.85 11.7115L7.95 13.8115L12.15 9.61145L13.6 11.0615L7.95 16.7115ZM2 20.3615C1.45 20.3615 0.979333 20.1658 0.588 19.7745C0.196667 19.3831 0.000666667 18.9121 0 18.3615V4.36145C0 3.81145 0.196 3.34078 0.588 2.94945C0.98 2.55812 1.45067 2.36212 2 2.36145H3V0.36145H5V2.36145H13V0.36145H15V2.36145H16C16.55 2.36145 17.021 2.55745 17.413 2.94945C17.805 3.34145 18.0007 3.81212 18 4.36145V18.3615C18 18.9114 17.8043 19.3825 17.413 19.7745C17.0217 20.1665 16.5507 20.3621 16 20.3615H2ZM2 18.3615H16V8.36145H2V18.3615Z" fill="#1E1E1E"/>
</svg>
