<svg width="24" height="25" viewBox="0 0 24 25" fill="none" xmlns="http://www.w3.org/2000/svg">
<path d="M7 18.6506H9V16.6506H11V14.6506H9V12.6506H7V14.6506H5V16.6506H7V18.6506ZM13 15.1506H19V13.6506H13V15.1506ZM13 18.1506H17V16.6506H13V18.1506ZM4 22.6506C3.45 22.6506 2.97933 22.4549 2.588 22.0636C2.19667 21.6722 2.00067 21.2012 2 20.6506V9.65057C2 9.10057 2.196 8.62991 2.588 8.23857C2.98 7.84724 3.45067 7.65124 4 7.65057H9V4.65057C9 4.10057 9.196 3.62991 9.588 3.23857C9.98 2.84724 10.4507 2.65124 11 2.65057H13C13.55 2.65057 14.021 2.84657 14.413 3.23857C14.805 3.63057 15.0007 4.10124 15 4.65057V7.65057H20C20.55 7.65057 21.021 7.84657 21.413 8.23857C21.805 8.63057 22.0007 9.10124 22 9.65057V20.6506C22 21.2006 21.8043 21.6716 21.413 22.0636C21.0217 22.4556 20.5507 22.6512 20 22.6506H4ZM11 9.65057H13V4.65057H11V9.65057Z" fill="#1E1E1E"/>
</svg>
